<?xml version="1.0" encoding="utf-8"?>
<!-- Generator: Adobe Illustrator 26.2.1, SVG Export Plug-In . SVG Version: 6.00 Build 0)  -->
<svg version="1.1" id="Layer_1" xmlns="http://www.w3.org/2000/svg" xmlns:xlink="http://www.w3.org/1999/xlink" x="0px" y="0px"
	 viewBox="0 0 1080 1296" style="enable-background:new 0 0 1080 1296;" xml:space="preserve">
<style type="text/css">
	.st0{fill:#FFC200;}
	.st1{font-family:'SignPainter-HouseScript';}
	.st2{font-size:158.199px;}
	.st3{fill:#FFD700;}
	.st4{fill:none;}
	.st5{opacity:0.5;fill:#1200FF;}
</style>
<g>
	<g>
		<g>
			<path d="M483.48,634.32c0,3.82-0.56,7.31-1.68,10.45c-1.12,3.15-2.81,5.94-5.06,8.36c-2.07,2.21-4.33,3.86-6.8,4.96
				c-2.46,1.09-5.26,1.64-8.38,1.64c-3.12,0-5.99-0.57-8.6-1.71c-2.61-1.14-4.97-2.91-7.08-5.32c-2.11-2.4-3.69-5.14-4.74-8.22
				c-1.05-3.08-1.57-6.44-1.57-10.09c0-4.04,0.59-7.65,1.77-10.83c1.18-3.18,3.04-6.1,5.59-8.74c1.87-1.95,4.07-3.42,6.6-4.43
				c2.52-1.01,5.2-1.51,8.04-1.51c3,0,5.75,0.52,8.24,1.57s4.8,2.72,6.94,5.03c2.23,2.4,3.92,5.15,5.05,8.25
				C482.91,626.82,483.48,630.35,483.48,634.32z M480.59,633.96c0-3.58-0.6-6.91-1.8-9.99c-1.2-3.08-2.87-5.68-5.01-7.82
				c-1.8-1.8-3.75-3.09-5.84-3.88c-2.09-0.78-4.23-1.17-6.42-1.17c-2.36,0-4.52,0.38-6.51,1.15c-1.98,0.77-3.85,2.01-5.61,3.71
				c-2.21,2.16-3.92,4.82-5.14,7.97c-1.21,3.15-1.82,6.62-1.82,10.42c0,3.7,0.55,7.05,1.66,10.04c1.1,2.99,2.78,5.64,5.01,7.95
				c1.61,1.68,3.48,2.96,5.62,3.84c2.14,0.88,4.4,1.32,6.78,1.32c2.23,0,4.42-0.41,6.54-1.23c2.13-0.82,4-2.05,5.61-3.71
				c2.33-2.43,4.07-5.06,5.21-7.91C480.02,641.8,480.59,638.24,480.59,633.96z"/>
			<path d="M512.57,607.75c-0.12,0-0.36,0-0.72,0c-0.36,0-0.66,0-0.9,0c-1.71,0-3.34,0.28-4.9,0.85c-1.56,0.56-2.86,1.38-3.89,2.46
				c-0.99,1.03-1.72,2.27-2.2,3.72c-0.48,1.45-0.72,3.41-0.72,5.88v1.37h12.58v2.16h-12.58c0,7.79,0.01,15.34,0.04,22.67
				c0.02,7.33,0.04,11.19,0.04,11.57h-2.78c0-0.38,0.01-4.1,0.04-11.14c0.02-7.04,0.04-14.74,0.04-23.11h-7.1v-2.16h7.1v-1.83
				c0-2.01,0.22-3.86,0.67-5.54c0.44-1.68,1.29-3.25,2.54-4.71c1.06-1.25,2.57-2.28,4.52-3.11c1.96-0.83,4.11-1.24,6.47-1.24
				c0.29,0,0.56,0,0.83,0c0.26,0,0.47,0,0.61,0L512.57,607.75z"/>
			<path d="M569.41,612.69c-0.36,0-2.08-0.01-5.17-0.02s-7.32-0.02-12.71-0.02c0,4.93-0.01,9.09-0.04,12.49
				c-0.02,3.4-0.04,7.3-0.04,11.7c0,4.23,0.01,8.53,0.04,12.89c0.02,4.36,0.04,7.26,0.04,8.71h-2.88c0-1.44,0.01-4.38,0.04-8.83
				c0.02-4.45,0.04-8.8,0.04-13.05c0-4.18-0.01-7.93-0.04-11.25c-0.02-3.32-0.04-7.53-0.04-12.65c-4.78,0-8.88,0.01-12.29,0.02
				c-3.41,0.01-5.26,0.02-5.55,0.02v-2.42c2.31,0,5.12,0.01,8.44,0.02c3.32,0.01,6.85,0.02,10.6,0.02c5.46,0,10-0.01,13.64-0.02
				c3.64-0.01,5.62-0.02,5.93-0.02V612.69z"/>
			<path d="M603.3,658.44h-2.78c0-0.96,0.01-3.1,0.04-6.42c0.02-3.32,0.04-6.19,0.04-8.62c0-2.38-0.01-4.49-0.04-6.33
				c-0.02-1.84-0.04-3.09-0.04-3.77c-0.05-3.46-0.7-5.94-1.95-7.43c-1.25-1.49-3.3-2.23-6.16-2.23c-1.39,0-3.23,0.44-5.52,1.33
				c-2.28,0.89-5.05,2.3-8.29,4.22l0.07,29.23h-2.78c0-1.13,0.01-3.74,0.04-7.82c0.02-4.09,0.04-10.93,0.04-20.55
				c0-3.17-0.01-7.08-0.02-11.72c-0.01-4.64-0.03-8.89-0.05-12.76h2.78l-0.07,21.2l0.11,0.04c3.03-1.78,5.71-3.15,8.04-4.13
				c2.33-0.97,4.49-1.46,6.49-1.46c3.32,0,5.82,0.99,7.5,2.96c1.68,1.97,2.52,4.58,2.52,7.82c0,2.79-0.01,5.12-0.02,7.01
				s-0.02,3.48-0.02,4.78c0,1.42,0.01,3.89,0.04,7.41C603.29,654.73,603.3,657.14,603.3,658.44z"/>
			<path d="M641.94,638.18h-26.6c0,3.36,0.46,6.2,1.37,8.51s2.67,4.42,5.26,6.34c1.42,1.06,3.14,1.86,5.17,2.42
				c2.03,0.55,4.24,0.83,6.61,0.83c0.84,0,1.74-0.02,2.7-0.05c0.96-0.04,1.71-0.07,2.23-0.09l-0.43,2.27
				c-0.26,0-0.74,0.02-1.42,0.07c-0.68,0.05-1.78,0.07-3.3,0.07c-3.34,0-6.33-0.48-8.98-1.44c-2.64-0.96-4.88-2.37-6.71-4.22
				c-1.61-1.66-2.88-3.64-3.82-5.95c-0.94-2.31-1.41-4.71-1.41-7.21c0-2.91,0.34-5.36,1.01-7.37c0.67-2.01,1.85-4.01,3.53-6
				c1.39-1.66,3.03-2.93,4.9-3.8c1.87-0.88,3.92-1.32,6.13-1.32c2.02,0,3.83,0.33,5.42,0.99c1.6,0.66,2.99,1.63,4.16,2.9
				c1.3,1.44,2.31,3.26,3.03,5.46C641.55,632.79,641.92,635.32,641.94,638.18z M639.28,636.12c-0.38-4.35-1.56-7.56-3.51-9.62
				c-1.96-2.07-4.5-3.1-7.62-3.1c-3.17,0-5.89,1.08-8.15,3.23c-2.26,2.15-3.77,5.32-4.54,9.5H639.28z"/>
		</g>
	</g>
	<g>
		<text transform="matrix(1 0 0 1 387.1464 518.235)" class="st0 st1 st2">Queen</text>
		<text transform="matrix(1 0 0 1 380.2909 514.5436)" class="st3 st1 st2">Queen</text>
	</g>
	<g>
		<rect x="311.68" y="734.9" class="st4" width="456.65" height="115.4"/>
		<text transform="matrix(1 0 0 1 334.0306 833.9547)" class="st0 st1 st2">Universe</text>
		<text transform="matrix(1 0 0 1 326.6693 829.0651)" class="st3 st1 st2">Universe</text>
	</g>
</g>
<rect x="71.5" y="595.75" class="st5" width="937" height="76.25"/>
</svg>
